<svg xmlns="http://www.w3.org/2000/svg" width="88" height="88" viewBox="0 0 88 88">
  <g id="Group_36310" data-name="Group 36310" transform="translate(-102.16 -1072)">
    <g id="Rectangle_19485" data-name="Rectangle 19485" transform="translate(102.16 1072)" fill="#1b2c42" stroke="#707070" stroke-width="1" opacity="0">
      <rect width="88" height="88" stroke="none"/>
      <rect x="0.5" y="0.5" width="87" height="87" fill="none"/>
    </g>
    <g id="XMLID_30_" transform="translate(65.108 1072)">
      <g id="Group_36001" data-name="Group 36001" transform="translate(46 24.197)">
        <path id="Path_34754" data-name="Path 34754" d="M189.719,236.826c-1.868,0-1.866,3.891,0,3.891H204.1c1.736,0,1.848-3.437.346-3.843C204.523,236.892,189.719,236.826,189.719,236.826Z" transform="translate(-161.558 -216.492)" fill="#1b2c42"/>
        <path id="Path_34755" data-name="Path 34755" d="M46,347.48v7.092a1.2,1.2,0,0,0,1.2,1.2H71.846l-3.2,11.17H62.9v3.2H99.8v-3.2H94.05l-3.2-11.17H115.5a1.2,1.2,0,0,0,1.2-1.2V347.48Zm44.725,19.462H71.975l3.2-11.17H87.53Z" transform="translate(-46 -306.339)" fill="#1b2c42"/>
        <path id="Path_34756" data-name="Path 34756" d="M203.13,275.842v1.274a1.316,1.316,0,0,0,1.32,1.308h8.969a1.316,1.316,0,0,0,1.32-1.308v-1.274a1.316,1.316,0,0,0-1.32-1.308H204.45A1.316,1.316,0,0,0,203.13,275.842Z" transform="translate(-173.584 -247.109)" fill="#1b2c42"/>
        <path id="Path_34757" data-name="Path 34757" d="M115.5,128.685H101.8a21.3,21.3,0,0,1-6.432,9.7,13.3,13.3,0,0,0-4.382,8.153,4.506,4.506,0,0,1,2.07,3.787V151.6a4.516,4.516,0,0,1-2.989,4.242,4.48,4.48,0,0,1,.285,1.574v1.274a4.517,4.517,0,0,1-4.515,4.508H76.866a4.517,4.517,0,0,1-4.515-4.508v-1.274a4.48,4.48,0,0,1,.284-1.574,4.516,4.516,0,0,1-2.989-4.242v-1.274a4.506,4.506,0,0,1,2.07-3.787,13.305,13.305,0,0,0-4.382-8.153,21.3,21.3,0,0,1-6.432-9.7H47.2a1.2,1.2,0,0,0-1.2,1.2v36.741h70.7V129.885a1.2,1.2,0,0,0-1.2-1.2ZM57.249,155.264H53.525v-3.2h3.724v3.2Zm7.989,0H61.514v-3.2h3.724Zm35.95,0H97.463v-3.2h3.724Zm7.989,0h-3.724v-3.2h3.724Z" transform="translate(-46 -128.685)" fill="#1b2c42"/>
      </g>
      <g id="Group_36002" data-name="Group 36002" transform="translate(63.116)">
        <path id="Path_34758" data-name="Path 34758" d="M227.609,147.129h2.5V160.8h-2.5Z" transform="translate(-210.577 -119.464)" fill="#1b2c42"/>
        <path id="Path_34759" data-name="Path 34759" d="M191.456,112.457h-.7a1.66,1.66,0,1,0,0,3.319h2.377v-1.66A1.668,1.668,0,0,0,191.456,112.457Z" transform="translate(-179.292 -91.311)" fill="#1b2c42"/>
        <path id="Path_34760" data-name="Path 34760" d="M155.262,0c-10.4,0-18.234,7.673-18.234,17.847a18.034,18.034,0,0,0,6.3,13.629,16.4,16.4,0,0,1,5.419,9.854h2.113V27.665h-2.377a4.908,4.908,0,0,1-4.471-6.781,5.479,5.479,0,0,1,7.35-2.426,4.907,4.907,0,0,1,2.694,4.348v1.66h2.5v-1.66a4.9,4.9,0,0,1,2.163-4.038,5.937,5.937,0,0,1,3.888-.8,4.859,4.859,0,0,1-.434,9.7h-2.42V41.331h2.018a16.4,16.4,0,0,1,5.419-9.854,18.034,18.034,0,0,0,6.3-13.629C173.5,7.673,165.657,0,155.262,0Z" transform="translate(-137.028)" fill="#1b2c42"/>
        <path id="Path_34761" data-name="Path 34761" d="M261.986,114.118a1.668,1.668,0,0,0-1.672-1.66h-.748a1.668,1.668,0,0,0-1.672,1.66v1.66h2.42A1.668,1.668,0,0,0,261.986,114.118Z" transform="translate(-235.166 -91.312)" fill="#1b2c42"/>
      </g>
    </g>
  </g>
</svg>
