<svg xmlns="http://www.w3.org/2000/svg" width="105.328" height="105.328" viewBox="0 0 105.328 105.328">
  <g id="Group_36312" data-name="Group 36312" transform="matrix(0.966, 0.259, -0.259, 0.966, -529.288, -2728.729)">
    <rect id="Rectangle_19480" data-name="Rectangle 19480" width="86" height="86" transform="translate(1239 2493)" fill="#1b2c42" opacity="0"/>
    <g id="_x33_2_Hosting" transform="translate(1239 2493)">
      <g id="Group_35966" data-name="Group 35966" transform="translate(0 0)">
        <g id="Group_35965" data-name="Group 35965" transform="translate(0 0)">
          <path id="Path_34368" data-name="Path 34368" d="M70.916,35.685A9.218,9.218,0,0,0,58.277,26.4,24.036,24.036,0,0,0,34.662,5.278a24.06,24.06,0,0,0-23.8,24.258,24.658,24.658,0,0,0,.774,6.128,13.555,13.555,0,0,0,1.689,26.964h1.308a.913.913,0,0,0,0-1.825H13.323a11.717,11.717,0,0,1-.492-23.41.911.911,0,0,0,.819-1.183,22.814,22.814,0,0,1-1-6.674A22.25,22.25,0,0,1,34.662,7.1,22.242,22.242,0,0,1,56.621,27.876a.9.9,0,0,0,1.356.717c5.5-3.374,12.392,1.693,11.008,8.027a.9.9,0,0,0,1.084,1.086,11.684,11.684,0,1,1,2.7,23.1H68.847a.913.913,0,0,0,0,1.825h3.924a13.52,13.52,0,1,0-1.855-26.943Z" transform="translate(-0.038 -5.278)" fill="#1b2c42"/>
          <path id="Path_34369" data-name="Path 34369" d="M148.91,218.976H105.735a3.38,3.38,0,0,0-3.376,3.376v8.418a3.38,3.38,0,0,0,3.376,3.376h2.307v2.3h-2.307a3.38,3.38,0,0,0-3.376,3.376v8.418a3.38,3.38,0,0,0,3.376,3.376h2.307v2.295h-2.307a3.38,3.38,0,0,0-3.376,3.376V265.7a3.38,3.38,0,0,0,3.376,3.376H148.91a3.38,3.38,0,0,0,3.376-3.376v-8.418a3.38,3.38,0,0,0-3.376-3.376H146.6v-2.295h2.307a3.38,3.38,0,0,0,3.376-3.376v-8.418a3.38,3.38,0,0,0-3.376-3.376H146.6v-2.3h2.307a3.38,3.38,0,0,0,3.376-3.376v-8.418A3.38,3.38,0,0,0,148.91,218.976Zm1.551,38.306V265.7a1.553,1.553,0,0,1-1.551,1.551H105.735a1.553,1.553,0,0,1-1.551-1.551v-8.418a1.552,1.552,0,0,1,1.551-1.551H148.91A1.552,1.552,0,0,1,150.461,257.282Zm-5.684-3.376h-34.91v-2.295h34.911v2.295Zm5.684-14.089v8.418a1.552,1.552,0,0,1-1.551,1.551H105.735a1.552,1.552,0,0,1-1.551-1.551v-8.418a1.553,1.553,0,0,1,1.551-1.551H148.91A1.553,1.553,0,0,1,150.461,239.817Zm-5.684-3.376h-34.91v-2.3h34.911v2.3Zm5.684-5.671a1.552,1.552,0,0,1-1.551,1.55H105.735a1.552,1.552,0,0,1-1.551-1.55v-8.418a1.552,1.552,0,0,1,1.551-1.551H148.91a1.552,1.552,0,0,1,1.551,1.551Z" transform="translate(-85.594 -183.075)" fill="#1b2c42"/>
          <path id="Path_34370" data-name="Path 34370" d="M137,257.956h-.491a.913.913,0,1,0,0,1.825H137a.913.913,0,1,0,0-1.825Z" transform="translate(-112.834 -215.051)" fill="#1b2c42"/>
          <path id="Path_34371" data-name="Path 34371" d="M157.3,257.956h-.491a.913.913,0,1,0,0,1.825h.491a.913.913,0,0,0,0-1.825Z" transform="translate(-129.72 -215.051)" fill="#1b2c42"/>
          <path id="Path_34372" data-name="Path 34372" d="M177.593,257.956H177.1a.913.913,0,0,0,0,1.825h.491a.913.913,0,0,0,0-1.825Z" transform="translate(-146.608 -215.051)" fill="#1b2c42"/>
          <path id="Path_34373" data-name="Path 34373" d="M221.67,246.7a.913.913,0,0,0-.913.913v3.855a.913.913,0,0,0,1.825,0V247.61A.913.913,0,0,0,221.67,246.7Z" transform="translate(-183.687 -205.719)" fill="#1b2c42"/>
          <path id="Path_34374" data-name="Path 34374" d="M247.548,246.7a.913.913,0,0,0-.913.913v3.855a.913.913,0,0,0,1.825,0V247.61A.913.913,0,0,0,247.548,246.7Z" transform="translate(-205.218 -205.719)" fill="#1b2c42"/>
          <path id="Path_34375" data-name="Path 34375" d="M273.423,246.7a.913.913,0,0,0-.913.913v3.855a.913.913,0,0,0,1.825,0V247.61A.913.913,0,0,0,273.423,246.7Z" transform="translate(-226.748 -205.719)" fill="#1b2c42"/>
          <path id="Path_34376" data-name="Path 34376" d="M299.3,246.7a.913.913,0,0,0-.913.913v3.855a.913.913,0,0,0,1.825,0V247.61A.913.913,0,0,0,299.3,246.7Z" transform="translate(-248.278 -205.719)" fill="#1b2c42"/>
          <path id="Path_34377" data-name="Path 34377" d="M329.593,246.692h-4.436a.913.913,0,0,0-.913.913v3.854a.913.913,0,0,0,.913.913h4.436a.913.913,0,0,0,.913-.913V247.6A.913.913,0,0,0,329.593,246.692Zm-.913,3.854h-2.611v-2.029h2.611Z" transform="translate(-269.85 -205.715)" fill="#1b2c42"/>
          <path id="Path_34378" data-name="Path 34378" d="M137,359.991h-.491a.913.913,0,1,0,0,1.825H137a.913.913,0,1,0,0-1.825Z" transform="translate(-112.834 -299.76)" fill="#1b2c42"/>
          <path id="Path_34379" data-name="Path 34379" d="M157.3,359.991h-.491a.913.913,0,0,0,0,1.825h.491a.913.913,0,0,0,0-1.825Z" transform="translate(-129.72 -299.76)" fill="#1b2c42"/>
          <path id="Path_34380" data-name="Path 34380" d="M177.593,359.991H177.1a.913.913,0,0,0,0,1.825h.491a.913.913,0,0,0,0-1.825Z" transform="translate(-146.608 -299.76)" fill="#1b2c42"/>
          <path id="Path_34381" data-name="Path 34381" d="M221.67,348.728a.913.913,0,0,0-.913.913V353.5a.913.913,0,1,0,1.825,0v-3.855A.913.913,0,0,0,221.67,348.728Z" transform="translate(-183.687 -290.432)" fill="#1b2c42"/>
          <path id="Path_34382" data-name="Path 34382" d="M247.548,348.728a.913.913,0,0,0-.913.913V353.5a.913.913,0,1,0,1.825,0v-3.855A.913.913,0,0,0,247.548,348.728Z" transform="translate(-205.218 -290.432)" fill="#1b2c42"/>
          <path id="Path_34383" data-name="Path 34383" d="M273.423,348.728a.913.913,0,0,0-.913.913V353.5a.913.913,0,1,0,1.825,0v-3.855A.913.913,0,0,0,273.423,348.728Z" transform="translate(-226.748 -290.432)" fill="#1b2c42"/>
          <path id="Path_34384" data-name="Path 34384" d="M299.3,348.728a.913.913,0,0,0-.913.913V353.5a.913.913,0,1,0,1.825,0v-3.855A.913.913,0,0,0,299.3,348.728Z" transform="translate(-248.278 -290.432)" fill="#1b2c42"/>
          <path id="Path_34385" data-name="Path 34385" d="M325.157,348.726a.913.913,0,0,0-.913.913v3.853a.913.913,0,0,0,.913.913h4.436a.913.913,0,0,0,.913-.913v-3.853a.913.913,0,0,0-.913-.913Zm3.523,3.853h-2.611v-2.028h2.611Z" transform="translate(-269.85 -290.43)" fill="#1b2c42"/>
          <path id="Path_34386" data-name="Path 34386" d="M137,462.022h-.491a.913.913,0,1,0,0,1.825H137a.913.913,0,1,0,0-1.825Z" transform="translate(-112.834 -384.519)" fill="#1b2c42"/>
          <path id="Path_34387" data-name="Path 34387" d="M157.3,462.022h-.491a.913.913,0,1,0,0,1.825h.491a.913.913,0,1,0,0-1.825Z" transform="translate(-129.72 -384.519)" fill="#1b2c42"/>
          <path id="Path_34388" data-name="Path 34388" d="M177.593,462.022H177.1a.913.913,0,0,0,0,1.825h.491a.913.913,0,1,0,0-1.825Z" transform="translate(-146.608 -384.519)" fill="#1b2c42"/>
          <path id="Path_34389" data-name="Path 34389" d="M221.67,450.762a.913.913,0,0,0-.913.913v3.855a.913.913,0,1,0,1.825,0v-3.855A.913.913,0,0,0,221.67,450.762Z" transform="translate(-183.687 -375.187)" fill="#1b2c42"/>
          <path id="Path_34390" data-name="Path 34390" d="M247.548,450.762a.913.913,0,0,0-.913.913v3.855a.913.913,0,1,0,1.825,0v-3.855A.913.913,0,0,0,247.548,450.762Z" transform="translate(-205.218 -375.187)" fill="#1b2c42"/>
          <path id="Path_34391" data-name="Path 34391" d="M273.423,450.762a.913.913,0,0,0-.913.913v3.855a.913.913,0,1,0,1.825,0v-3.855A.913.913,0,0,0,273.423,450.762Z" transform="translate(-226.748 -375.187)" fill="#1b2c42"/>
          <path id="Path_34392" data-name="Path 34392" d="M299.3,450.762a.913.913,0,0,0-.913.913v3.855a.913.913,0,1,0,1.825,0v-3.855A.913.913,0,0,0,299.3,450.762Z" transform="translate(-248.278 -375.187)" fill="#1b2c42"/>
          <path id="Path_34393" data-name="Path 34393" d="M325.157,450.757a.913.913,0,0,0-.913.913v3.853a.913.913,0,0,0,.913.913h4.436a.913.913,0,0,0,.913-.913V451.67a.913.913,0,0,0-.913-.913Zm3.523,3.853h-2.611v-2.028h2.611Z" transform="translate(-269.85 -375.183)" fill="#1b2c42"/>
          <path id="Path_34394" data-name="Path 34394" d="M206.909,142.035a.913.913,0,0,0,.913-.913v-7.767l1.253,1.36a.913.913,0,1,0,1.342-1.237l-2.83-3.072a.915.915,0,0,0-1.341,0h0l-2.844,3.072a.913.913,0,1,0,1.34,1.24L206,133.362v7.76A.913.913,0,0,0,206.909,142.035Z" transform="translate(-169.091 -108.939)" fill="#1b2c42"/>
          <path id="Path_34395" data-name="Path 34395" d="M253.175,130.11a.913.913,0,0,0-.913.913v7.767l-1.254-1.36a.913.913,0,1,0-1.342,1.237l2.831,3.072a.913.913,0,0,0,1.34,0h0l2.844-3.072a.913.913,0,1,0-1.34-1.24l-1.255,1.355v-7.761A.913.913,0,0,0,253.175,130.11Z" transform="translate(-207.597 -108.936)" fill="#1b2c42"/>
        </g>
      </g>
    </g>
  </g>
</svg>
