<svg xmlns="http://www.w3.org/2000/svg" width="88" height="88" viewBox="0 0 88 88">
  <g id="Group_36309" data-name="Group 36309" transform="translate(-102 -1203)">
    <g id="Rectangle_19487" data-name="Rectangle 19487" transform="translate(102 1203)" fill="#1b2c42" stroke="#707070" stroke-width="1" opacity="0">
      <rect width="88" height="88" stroke="none"/>
      <rect x="0.5" y="0.5" width="87" height="87" fill="none"/>
    </g>
    <path id="support" d="M52.879,92.158a5.507,5.507,0,0,0-5.507-5.507H40.628a5.507,5.507,0,0,0,0,11.014h6.744a5.507,5.507,0,0,0,5.507-5.507Zm-41.3-14.2A23.852,23.852,0,0,0,14.728,78,15.633,15.633,0,0,0,30.066,90.612h2.1a8.642,8.642,0,0,0,0,3.094h-2.1A18.727,18.727,0,0,1,11.578,77.958ZM10,74.666A12,12,0,0,1,0,62.834V55.522a12,12,0,0,1,12-12h.8a31.3,31.3,0,0,1,62.4,0H76a12,12,0,0,1,12,12v7.312a12,12,0,0,1-12,12H72.46A2.659,2.659,0,0,1,69.8,72.174V46.03a25.8,25.8,0,1,0-51.6,0V72.174a2.659,2.659,0,0,1-1.459,2.374c-2.384.827-6.08.229-6.735.118Z" transform="translate(102 1190.803)" fill="#1b2c42" fill-rule="evenodd"/>
  </g>
</svg>
