<svg xmlns="http://www.w3.org/2000/svg" width="107.778" height="107.778" viewBox="0 0 107.778 107.778">
  <g id="Group_36314" data-name="Group 36314" transform="matrix(-0.966, -0.259, 0.259, -0.966, 85.002, 107.778)">
    <g id="Rectangle_19485" data-name="Rectangle 19485" transform="translate(0 0)" fill="#b8c6d9" stroke="#707070" stroke-width="1" opacity="0">
      <rect width="88" height="88" stroke="none"/>
      <rect x="0.5" y="0.5" width="87" height="87" fill="none"/>
    </g>
    <g id="movie-player" transform="translate(0 7.043)">
      <path id="Subtraction_14" data-name="Subtraction 14" d="M84.965,0H3.034A3.034,3.034,0,0,0,0,3.034V69.792a3.034,3.034,0,0,0,3.034,3.034H84.965A3.034,3.034,0,0,0,88,69.792V3.034A3.034,3.034,0,0,0,84.965,0ZM4.552,10.62V7.586H25.793V4.551h3.034V7.586h54.62V10.62H28.828v3.034H25.793V10.62ZM44,65.241A24.276,24.276,0,1,1,68.276,40.965,24.3,24.3,0,0,1,44,65.241ZM16.69,68.275V65.241h3.034v3.034Zm-6.069,0V65.241h3.034v3.034Zm-6.069,0V65.241H7.586v3.034ZM44,19.724a21.381,21.381,0,0,0-4.281.432,21.136,21.136,0,0,0-7.595,3.2,21.311,21.311,0,0,0-7.7,9.346,21.069,21.069,0,0,0-1.238,3.988,21.432,21.432,0,0,0,0,8.561,21.128,21.128,0,0,0,3.2,7.6A21.249,21.249,0,0,0,64.81,36.685a21.12,21.12,0,0,0-3.2-7.6,21.283,21.283,0,0,0-9.346-7.7,21.12,21.12,0,0,0-3.987-1.238A21.365,21.365,0,0,0,44,19.724Zm-9.1,34.9V27.31L59.173,40.965,34.9,54.62Z" transform="translate(0 0)" fill="#b8c6d9"/>
    </g>
  </g>
</svg>
