<svg xmlns="http://www.w3.org/2000/svg" width="88" height="88" viewBox="0 0 88 88">
  <g id="Group_36318" data-name="Group 36318" transform="translate(-1193 -2050)">
    <g id="Rectangle_19517" data-name="Rectangle 19517" transform="translate(1193 2050)" fill="#2fa9ba" stroke="#707070" stroke-width="1" opacity="0">
      <rect width="88" height="88" stroke="none"/>
      <rect x="0.5" y="0.5" width="87" height="87" fill="none"/>
    </g>
    <g id="social-media" transform="translate(1192.511 2050.002)" opacity="0.3">
      <path id="Subtraction_15" data-name="Subtraction 15" d="M71.528,88A16.451,16.451,0,0,1,56.188,77.47a35.673,35.673,0,0,1-24.411,0A16.429,16.429,0,0,1,7.246,85.189a16.486,16.486,0,0,1-5.955-7.231A16.42,16.42,0,0,1,2.948,62.166a16.486,16.486,0,0,1,7.558-5.939,35.675,35.675,0,0,1-.011-24.463,16.434,16.434,0,1,1,21.27-21.269,35.684,35.684,0,0,1,24.434,0A16.435,16.435,0,1,1,77.467,31.764a35.679,35.679,0,0,1-.011,24.462A16.436,16.436,0,0,1,71.528,88ZM65.759,62.032A3.763,3.763,0,0,0,62,65.791V77.33a3.763,3.763,0,0,0,3.759,3.759H77.3a3.763,3.763,0,0,0,3.759-3.759V65.791A3.763,3.763,0,0,0,77.3,62.032ZM13.423,65.66a.5.5,0,0,0-.5.5V76.6a.5.5,0,0,0,.5.5.492.492,0,0,0,.249-.068l4.518-2.61,4.52-2.61a.5.5,0,0,0,0-.866l-4.52-2.61-4.518-2.61A.494.494,0,0,0,13.423,65.66Zm3.012-10.535a16.357,16.357,0,0,1,9.19,2.807,16.482,16.482,0,0,1,5.955,7.231,16.329,16.329,0,0,1,1.292,6.4,16.551,16.551,0,0,1-.294,3.112,32.759,32.759,0,0,0,22.81,0,16.545,16.545,0,0,1-.294-3.111A16.359,16.359,0,0,1,57.9,62.371a16.486,16.486,0,0,1,7.231-5.955,16.331,16.331,0,0,1,6.4-1.292,16.612,16.612,0,0,1,3.132.3,32.765,32.765,0,0,0,.011-22.852,16.575,16.575,0,0,1-3.143.3,16.358,16.358,0,0,1-9.189-2.807,16.485,16.485,0,0,1-5.955-7.231,16.333,16.333,0,0,1-1.291-6.4,16.586,16.586,0,0,1,.3-3.143,32.774,32.774,0,0,0-22.822,0,16.585,16.585,0,0,1,.3,3.144,16.36,16.36,0,0,1-2.807,9.189,16.484,16.484,0,0,1-7.231,5.955,16.33,16.33,0,0,1-6.4,1.292,16.582,16.582,0,0,1-3.143-.3A32.758,32.758,0,0,0,13.3,55.422,16.605,16.605,0,0,1,16.435,55.125ZM67.16,14.7a1.452,1.452,0,0,0,0,2.9h1.758V25.4a1.451,1.451,0,1,0,2.9,0V17.606h1.927a1.452,1.452,0,0,0,0-2.9H71.821V11.111a2.193,2.193,0,0,1,2.19-2.191H75.73a1.451,1.451,0,1,0,0-2.9H74.011a5.1,5.1,0,0,0-5.093,5.093V14.7ZM8.688,10.747a.23.23,0,0,0-.22.156c-.583,1.667-2,7.319,4.181,10.067a9.383,9.383,0,0,1-4.69,1.6.231.231,0,0,0-.219.192.228.228,0,0,0,.132.255,11.8,11.8,0,0,0,4.98,1.12h0c5.1,0,10.266-3.717,10.266-10.819a3.647,3.647,0,0,0-.065-.668,6.266,6.266,0,0,0,1.488-2.331.229.229,0,0,0-.029-.212.237.237,0,0,0-.193-.1.228.228,0,0,0-.118.034,8.8,8.8,0,0,1-2,.888,3.608,3.608,0,0,0-6.33,2.417v.8l-.225,0a8.581,8.581,0,0,1-6.773-3.313A.232.232,0,0,0,8.688,10.747ZM77.3,78.186H65.759a.857.857,0,0,1-.857-.856V65.791a.858.858,0,0,1,.857-.857H77.3a.858.858,0,0,1,.857.857V77.33A.858.858,0,0,1,77.3,78.186Zm-5.77-10.763a4.137,4.137,0,1,0,4.137,4.137A4.142,4.142,0,0,0,71.528,67.423Zm0,5.371a1.234,1.234,0,1,1,.873-2.107,1.234,1.234,0,0,1-.873,2.107Z" transform="translate(0.498 0.003)" fill="#2fa9ba"/>
      <path id="Union_22" data-name="Union 22" d="M2.888,27.27,2.363,17.158c0-.025,0-.05,0-.075H1.335A1.335,1.335,0,0,1,0,15.746V8.772A1.335,1.335,0,0,1,1.335,7.437h6.08a.209.209,0,0,1,.209.208v9.229a.208.208,0,0,1-.209.208H5.265l.522,10.037a1.451,1.451,0,0,1-1.374,1.524l-.077,0A1.452,1.452,0,0,1,2.888,27.27Zm16.186-4.2v-2.2a41.2,41.2,0,0,0-5.292-2.478,41.162,41.162,0,0,0-6.158-1.832v-8.6a40.952,40.952,0,0,0,6.19-1.838,40.836,40.836,0,0,0,5.26-2.47v-2.2a1.452,1.452,0,0,1,2.9,0V23.068a1.452,1.452,0,0,1-2.9,0Z" transform="translate(33.563 30.083)" fill="#2fa9ba"/>
    </g>
  </g>
</svg>
