<svg xmlns="http://www.w3.org/2000/svg" width="124.148" height="124.148" viewBox="0 0 124.148 124.148">
  <g id="Group_36315" data-name="Group 36315" transform="translate(124.148 57.733) rotate(131)">
    <g id="Rectangle_19488" data-name="Rectangle 19488" transform="translate(0 0)" fill="#b8c6d9" stroke="#707070" stroke-width="1" opacity="0">
      <rect width="88" height="88" stroke="none"/>
      <rect x="0.5" y="0.5" width="87" height="87" fill="none"/>
    </g>
    <g id="vector" transform="translate(0 0)">
      <g id="Group_35980" data-name="Group 35980" transform="translate(0 36.266)">
        <g id="Group_35979" data-name="Group 35979">
          <path id="Path_34450" data-name="Path 34450" d="M85.422,51.734H74.938a2.577,2.577,0,0,1-2.578-2.578V46.578H51.26a7.688,7.688,0,0,1-14.519,0h-21.1v2.578a2.577,2.577,0,0,1-2.578,2.578H2.578A2.577,2.577,0,0,1,0,49.156V38.844a2.577,2.577,0,0,1,2.578-2.578H13.063a2.577,2.577,0,0,1,2.578,2.578v2.612H26.229a33.632,33.632,0,0,1-15.552-26.4,7.712,7.712,0,1,1,5.146-.117A28.291,28.291,0,0,0,37.155,40.477a7.669,7.669,0,0,1,13.691,0A28.291,28.291,0,0,0,72.177,14.937a7.756,7.756,0,1,1,5.146.116A33.57,33.57,0,0,1,61.771,41.422H72.359V38.844a2.577,2.577,0,0,1,2.578-2.578H85.422A2.577,2.577,0,0,1,88,38.844V49.156A2.577,2.577,0,0,1,85.422,51.734Z" fill="#b8c6d9"/>
        </g>
      </g>
      <g id="Group_35982" data-name="Group 35982" transform="translate(26.347 0)">
        <g id="Group_35981" data-name="Group 35981">
          <path id="Path_34451" data-name="Path 34451" d="M35.192,3.2a10.484,10.484,0,0,1-9.805,7.287H9.918A10.484,10.484,0,0,1,.113,3.2,2.54,2.54,0,0,1,2.62,0H32.685A2.54,2.54,0,0,1,35.192,3.2Z" fill="#b8c6d9"/>
        </g>
      </g>
      <g id="Group_35984" data-name="Group 35984" transform="translate(20.797 14.494)">
        <g id="Group_35983" data-name="Group 35983" transform="translate(0 0)">
          <path id="Path_34452" data-name="Path 34452" d="M45.973,20.624,25.781,50.911V26.453a7.734,7.734,0,1,0-5.156,0V50.911L.433,20.623a2.577,2.577,0,0,1,.322-3.253A32.555,32.555,0,0,0,9.681,0a15.352,15.352,0,0,0,5.788,1.147H30.938A15.355,15.355,0,0,0,36.725,0a32.553,32.553,0,0,0,8.926,17.37A2.578,2.578,0,0,1,45.973,20.624Z" fill="#b8c6d9"/>
        </g>
      </g>
      <g id="Group_35986" data-name="Group 35986" transform="translate(41.422 31.109)">
        <g id="Group_35985" data-name="Group 35985" transform="translate(0 0)">
          <path id="Path_34453" data-name="Path 34453" d="M2.578,5.156A2.578,2.578,0,1,1,5.156,2.578,2.58,2.58,0,0,1,2.578,5.156Z" transform="translate(0 0)" fill="#b8c6d9"/>
        </g>
      </g>
    </g>
  </g>
</svg>
