<svg xmlns="http://www.w3.org/2000/svg" width="88" height="88" viewBox="0 0 88 88">
  <g id="Group_36317" data-name="Group 36317" transform="translate(-98 -2181)">
    <g id="Rectangle_19516" data-name="Rectangle 19516" transform="translate(98 2181)" fill="#2fa9ba" stroke="#707070" stroke-width="1" opacity="0">
      <rect width="88" height="88" stroke="none"/>
      <rect x="0.5" y="0.5" width="87" height="87" fill="none"/>
    </g>
    <path id="writing" d="M33.744,100.493a2.236,2.236,0,1,1,0-4.472h8.59a42.063,42.063,0,0,0,.578-10.552H16.318A6.317,6.317,0,0,1,10,79.152V28.638a6.317,6.317,0,0,1,6.317-6.317H46.042l.2-.343,10.314,5.955L42.668,51.982,32.354,46.028,43.77,26.255H16.318a2.381,2.381,0,0,0-2.383,2.383V71.853h80.13V28.638a2.381,2.381,0,0,0-2.383-2.383H60.8L48.029,18.879l1.166-2.019a5.955,5.955,0,0,1,10.569,5.46h31.92A6.317,6.317,0,0,1,98,28.637V79.152a6.317,6.317,0,0,1-6.318,6.318h-26.8a40.342,40.342,0,0,0,.678,10.552h8.616a2.236,2.236,0,1,1,0,4.472H33.744Zm44.331-51a1.788,1.788,0,0,0-1.789-1.789H57.758a1.789,1.789,0,0,0,0,3.577H76.286A1.788,1.788,0,0,0,78.075,49.494Zm-42.749,7.76,4.66-2.69L31.46,49.642v7.631a1.789,1.789,0,0,0,.256,3.559h44.57a1.789,1.789,0,0,0,0-3.577Z" transform="translate(87.999 2168.134)" fill="#2fa9ba" fill-rule="evenodd"/>
  </g>
</svg>
